<?xml version="1.0" encoding="utf-8"?><!DOCTYPE svg PUBLIC "-//W3C//DTD SVG 1.1//EN" "http://www.w3.org/Graphics/SVG/1.1/DTD/svg11.dtd"><svg version="1.1" baseProfile="full" xmlns="http://www.w3.org/2000/svg" xmlns:xlink="http://www.w3.org/1999/xlink" xmlns:ev="http://www.w3.org/2001/xml-events" height="17.9px" width="17.9px" ><path fill="rgb( 255, 255, 255 )" d="M8,16 C3.582,16 0,12.418 0,8 C0,3.582 3.582,0 8,0 C12.418,0 16,3.582 16,8 C16,12.418 12.418,16 8,16 ZM8,2 C4.687,2 2,4.687 2,8 C2,11.314 4.687,14 8,14 C11.314,14 14,11.314 14,8 C14,4.687 11.314,2 8,2 ZM10.828,10.829 C10.438,11.219 9.805,11.219 9.414,10.829 C9.414,10.829 8,9.414 8,9.414 C8,9.414 6.586,10.829 6.586,10.829 C6.195,11.219 5.562,11.219 5.172,10.829 C4.781,10.438 4.781,9.805 5.172,9.414 C5.172,9.414 6.586,8 6.586,8 C6.586,8 5.172,6.586 5.172,6.586 C4.781,6.195 4.781,5.562 5.172,5.172 C5.562,4.781 6.195,4.781 6.586,5.172 C6.586,5.172 8,6.586 8,6.586 C8,6.586 9.414,5.172 9.414,5.172 C9.805,4.781 10.438,4.781 10.828,5.172 C11.219,5.562 11.219,6.195 10.828,6.586 C10.828,6.586 9.414,8 9.414,8 C9.414,8 10.828,9.414 10.828,9.414 C11.219,9.805 11.219,10.438 10.828,10.829 Z "/></svg>