<?xml version="1.0" encoding="utf-8"?><!DOCTYPE svg PUBLIC "-//W3C//DTD SVG 1.1//EN" "http://www.w3.org/Graphics/SVG/1.1/DTD/svg11.dtd"><svg version="1.1" baseProfile="full" xmlns="http://www.w3.org/2000/svg" xmlns:xlink="http://www.w3.org/1999/xlink" xmlns:ev="http://www.w3.org/2001/xml-events" height="17.9px" width="17.9px" ><path fill="rgb( 125, 143, 149 )" d="M8,16 C3.58199999999999,16 0,12.418 0,8 C0,3.58199999999999 3.58199999999999,0 8,0 C12.418,0 16,3.58199999999999 16,8 C16,12.418 12.418,16 8,16 ZM8,2 C4.68700000000001,2 2,4.68599999999998 2,8 C2,11.313 4.68700000000001,14 8,14 C11.314,14 14,11.313 14,8 C14,4.68599999999998 11.314,2 8,2 ZM8.70699999999999,11.708 C8.512,11.903 8.25599999999997,12.001 8,12.001 C7.74400000000003,12.001 7.488,11.903 7.29300000000001,11.708 C7.29300000000001,11.708 5.29300000000001,9.70800000000003 5.29300000000001,9.70800000000003 C5.00700000000001,9.42200000000003 4.92200000000003,8.99099999999999 5.07600000000002,8.61700000000002 C5.23099999999999,8.24400000000003 5.596,8 6,8 C6,8 7,8 7,8 C7,8 7,5 7,5 C7,4.447 7.447,4 8,4 C8.553,4 9,4.447 9,5 C9,5 9,8 9,8 C9,8 10,8 10,8 C10.404,8 10.77,8.24400000000003 10.924,8.61700000000002 C11.078,8.99200000000002 10.992,9.42200000000003 10.707,9.70800000000003 C10.707,9.70800000000003 8.70699999999999,11.708 8.70699999999999,11.708 Z "/></svg>