<?xml version="1.0" encoding="utf-8"?><!DOCTYPE svg PUBLIC "-//W3C//DTD SVG 1.1//EN" "http://www.w3.org/Graphics/SVG/1.1/DTD/svg11.dtd"><svg version="1.1" baseProfile="full" xmlns="http://www.w3.org/2000/svg" xmlns:xlink="http://www.w3.org/1999/xlink" xmlns:ev="http://www.w3.org/2001/xml-events" height="27.9px" width="33.9px" ><path fill="rgb( 255, 255, 255 )" d="M15.9949999999999,5.99800000000005 C15.9949999999999,1 4.86899999999991,0 0,0 C0,0 0,21.992 0,21.992 C0,21.992 1,21.992 1,21.992 C1.35099999999989,21.992 1.66799999999989,21.994 1.9989999999998,21.996 C1.9989999999998,21.996 1.9989999999998,23.991 1.9989999999998,23.991 C5.99799999999982,23.991 13.9959999999999,22.792 13.9959999999999,25.99 C13.9959999999999,25.99 17.9939999999999,25.99 17.9939999999999,25.99 C17.9939999999999,22.792 25.992,23.991 29.991,23.991 C29.991,23.991 29.991,21.996 29.991,21.996 C30.3229999999999,21.996 30.6429999999998,21.992 30.9899999999998,21.992 C30.9899999999998,21.992 31.9899999999998,21.992 31.9899999999998,21.992 C31.9899999999998,21.992 31.9899999999998,0 31.9899999999998,0 C27.1239999999998,0 15.9949999999999,1 15.9949999999999,5.99800000000005 ZM13.9959999999999,20.885 C11.079,19.1610000000001 5.61099999999988,19.008 1.9989999999998,18.9930000000001 C1.9989999999998,18.9930000000001 1.9989999999998,1.99900000000002 1.9989999999998,1.99900000000002 C2.99499999999989,2.00900000000001 3.8929999999998,2.04999999999995 4.73699999999985,2.10699999999997 C4.73699999999985,2.10699999999997 5.23299999999995,2.13800000000003 5.23299999999995,2.13800000000003 C5.23299999999995,2.13800000000003 5.41599999999994,2.15200000000004 5.41599999999994,2.15200000000004 C9.34899999999993,2.43299999999999 13.5149999999999,3.25699999999995 13.933,5.61500000000001 C13.933,5.61500000000001 13.9959999999999,5.99800000000005 13.9959999999999,5.99800000000005 C13.9959999999999,5.99800000000005 13.9959999999999,20.885 13.9959999999999,20.885 ZM29.991,18.9930000000001 C26.3789999999999,19.008 20.9119999999998,19.1610000000001 17.9939999999999,20.885 C17.9939999999999,20.885 17.9939999999999,5.99800000000005 17.9939999999999,5.99800000000005 C17.9939999999999,4.67399999999998 20.107,2.09699999999998 29.991,1.99900000000002 C29.991,1.99900000000002 29.991,18.9930000000001 29.991,18.9930000000001 Z "/></svg>