<?xml version="1.0" encoding="utf-8"?><!DOCTYPE svg PUBLIC "-//W3C//DTD SVG 1.1//EN" "http://www.w3.org/Graphics/SVG/1.1/DTD/svg11.dtd"><svg version="1.1" baseProfile="full" xmlns="http://www.w3.org/2000/svg" xmlns:xlink="http://www.w3.org/1999/xlink" xmlns:ev="http://www.w3.org/2001/xml-events" height="7.9px" width="25.9px" ><path fill="rgb( 125, 143, 149 )" d="M21,6 C19.343,6 18,4.65700000000004 18,3 C18,1.34299999999996 19.343,0 21,0 C22.657,0 24,1.34299999999996 24,3 C24,4.65700000000004 22.657,6 21,6 ZM12,6 C10.343,6 9,4.65700000000004 9,3 C9,1.34299999999996 10.343,0 12,0 C13.657,0 15,1.34299999999996 15,3 C15,4.65700000000004 13.657,6 12,6 ZM3,6 C1.34299999999996,6 0,4.65700000000004 0,3 C0,1.34299999999996 1.34299999999996,0 3,0 C4.65700000000004,0 6,1.34299999999996 6,3 C6,4.65700000000004 4.65700000000004,6 3,6 Z "/></svg>