<?xml version="1.0" encoding="utf-8"?><!DOCTYPE svg PUBLIC "-//W3C//DTD SVG 1.1//EN" "http://www.w3.org/Graphics/SVG/1.1/DTD/svg11.dtd"><svg version="1.1" baseProfile="full" xmlns="http://www.w3.org/2000/svg" xmlns:xlink="http://www.w3.org/1999/xlink" xmlns:ev="http://www.w3.org/2001/xml-events" height="21.9px" width="21.9px" ><path fill="rgb( 194, 197, 238 )" d="M10,20 C4.47800000000007,20 0,15.5229999999999 0,10 C0,4.47800000000007 4.47800000000007,0 10,0 C15.5219999999999,0 20,4.47800000000007 20,10 C20,15.5229999999999 15.5219999999999,20 10,20 ZM10,2.5 C5.86400000000003,2.5 2.5,5.86400000000003 2.5,10 C2.5,14.136 5.86400000000003,17.5 10,17.5 C14.136,17.5 17.5,14.136 17.5,10 C17.5,5.86400000000003 14.136,2.5 10,2.5 ZM13.9200000000001,12.3219999999999 C13.673,12.559 13.2729999999999,12.559 13.0250000000001,12.3219999999999 C13.0250000000001,12.3219999999999 9.98299999999995,9.4190000000001 9.98299999999995,9.4190000000001 C9.98299999999995,9.4190000000001 6.97600000000011,12.288 6.97600000000011,12.288 C6.73000000000002,12.5239999999999 6.32899999999995,12.5239999999999 6.08300000000008,12.288 C6.08300000000008,12.288 5.1869999999999,11.433 5.1869999999999,11.433 C4.9380000000001,11.1990000000001 4.9380000000001,10.8150000000001 5.1869999999999,10.579 C5.1869999999999,10.579 9.53500000000008,6.42599999999993 9.53500000000008,6.42599999999993 C9.7829999999999,6.19100000000003 10.183,6.19100000000003 10.431,6.42599999999993 C10.431,6.42599999999993 14.816,10.6130000000001 14.816,10.6130000000001 C15.0619999999999,10.8499999999999 15.0619999999999,11.2329999999999 14.816,11.4670000000001 C14.816,11.4670000000001 13.9200000000001,12.3219999999999 13.9200000000001,12.3219999999999 Z "/></svg>