<?xml version="1.0" encoding="utf-8"?><!DOCTYPE svg PUBLIC "-//W3C//DTD SVG 1.1//EN" "http://www.w3.org/Graphics/SVG/1.1/DTD/svg11.dtd"><svg version="1.1" baseProfile="full" xmlns="http://www.w3.org/2000/svg" xmlns:xlink="http://www.w3.org/1999/xlink" xmlns:ev="http://www.w3.org/2001/xml-events"   height="16px"   width="17px" ><defs><filter id="Filter_0">  <feFlood flood-color="rgb( 0, 0, 0 )" flood-opacity="1" result="floodOut" />  <feComposite operator="atop" in="floodOut" in2="SourceGraphic" result="compOut" />  <feBlend mode="normal" in="compOut" in2="SourceGraphic" /></filter></defs><g filter="url(#Filter_0)"><path fill="rgb( 0, 0, 0 )" d="M8.5,0 C8.5,0 11.302,5.028 11.302,5.028 C11.302,5.028 17,6.111 17,6.111 C17,6.111 13.033,10.302 13.033,10.302 C13.033,10.302 13.753,16 13.753,16 C13.753,16 8.5,13.562 8.5,13.562 C8.5,13.562 3.247,16 3.247,16 C3.247,16 3.967,10.302 3.967,10.302 C3.967,10.302 0,6.111 0,6.111 C0,6.111 5.698,5.028 5.698,5.028 C5.698,5.028 8.5,0 8.5,0 M6.69,6.373 C6.69,6.373 2.986,7.077 2.986,7.077 C2.986,7.077 5.564,9.801 5.564,9.801 C5.564,9.801 5.096,13.505 5.096,13.505 C5.096,13.505 8.511,11.92 8.511,11.92 C8.511,11.92 11.925,13.505 11.925,13.505 C11.925,13.505 11.458,9.801 11.458,9.801 C11.458,9.801 14.036,7.077 14.036,7.077 C14.036,7.077 10.332,6.373 10.332,6.373 C10.332,6.373 8.511,3.105 8.511,3.105 C8.511,3.105 6.69,6.373 6.69,6.373  "/></g></svg>