<?xml version="1.0" encoding="utf-8"?><!DOCTYPE svg PUBLIC "-//W3C//DTD SVG 1.1//EN" "http://www.w3.org/Graphics/SVG/1.1/DTD/svg11.dtd"><svg version="1.1" baseProfile="full" xmlns="http://www.w3.org/2000/svg" xmlns:xlink="http://www.w3.org/1999/xlink" xmlns:ev="http://www.w3.org/2001/xml-events"   height="119px"   width="71px" ><path fill="rgb( 0, 0, 0 )" d="M35.806,92.5 C35.806,92.5 0,119 0,119 C0,119 0,0 0,0 C0,0 71,0 71,0 C71,0 71,119 71,119 C71,119 35.806,92.5 35.806,92.5 Z "/><path fill="rgb( 255, 255, 255 )" d="M59,38.915 C59,38.915 45.136,48.486 45.136,48.486 C45.136,48.486 45.138,48.493 45.138,48.493 C45.138,48.493 45.115,48.509 45.115,48.509 C45.115,48.509 50.786,65 50.786,65 C50.786,65 36.013,54.802 36.013,54.802 C36.013,54.802 36,54.811 36,54.811 C36,54.811 35.987,54.802 35.987,54.802 C35.987,54.802 21.214,65 21.214,65 C21.214,65 26.885,48.509 26.885,48.509 C26.885,48.509 26.862,48.493 26.862,48.493 C26.862,48.493 26.864,48.486 26.864,48.486 C26.864,48.486 13,38.915 13,38.915 C13,38.915 30.147,38.915 30.147,38.915 C30.147,38.915 30.184,38.915 30.184,38.915 C30.184,38.915 36,22 36,22 C36,22 41.816,38.915 41.816,38.915 C41.816,38.915 41.853,38.915 41.853,38.915 C41.853,38.915 59,38.915 59,38.915 Z "/></svg>