<?xml version="1.0" encoding="utf-8"?><!DOCTYPE svg PUBLIC "-//W3C//DTD SVG 1.1//EN" "http://www.w3.org/Graphics/SVG/1.1/DTD/svg11.dtd"><svg version="1.1" baseProfile="full" xmlns="http://www.w3.org/2000/svg" xmlns:xlink="http://www.w3.org/1999/xlink" xmlns:ev="http://www.w3.org/2001/xml-events" height="15.9px" width="17.9px" ><path fill="rgb( 255, 255, 255 )" d="M0,10 C0,10 0,8 0,8 C0,8 16,8 16,8 C16,8 16,10 16,10 C16,10 0,10 0,10 ZM0,4 C0,4 16,4 16,4 C16,4 16,6 16,6 C16,6 0,6 0,6 C0,6 0,4 0,4 ZM0,0 C0,0 16,0 16,0 C16,0 16,2 16,2 C16,2 0,2 0,2 C0,2 0,0 0,0 ZM8,14 C8,14 0,14 0,14 C0,14 0,12 0,12 C0,12 8,12 8,12 C8,12 8,14 8,14 Z "/></svg>