<?xml version="1.0" encoding="utf-8"?><!DOCTYPE svg PUBLIC "-//W3C//DTD SVG 1.1//EN" "http://www.w3.org/Graphics/SVG/1.1/DTD/svg11.dtd"><svg version="1.1" baseProfile="full" xmlns="http://www.w3.org/2000/svg" xmlns:xlink="http://www.w3.org/1999/xlink" xmlns:ev="http://www.w3.org/2001/xml-events" height="17.9px" width="17.9px" ><path fill="rgb( 125, 143, 149 )" d="M8,16 C3.58199999999999,16 0,12.418 0,8 C0,3.58199999999999 3.58199999999999,0 8,0 C12.418,0 16,3.58199999999999 16,8 C16,12.418 12.418,16 8,16 ZM8,2 C4.68700000000001,2 2,4.68700000000001 2,8 C2,11.314 4.68700000000001,14 8,14 C11.314,14 14,11.314 14,8 C14,4.68700000000001 11.314,2 8,2 ZM10,8 C10,8 9,8 9,8 C9,8 9,11 9,11 C9,11.553 8.553,12 8,12 C7.447,12 7,11.553 7,11 C7,11 7,8 7,8 C7,8 6,8 6,8 C5.596,8 5.22999999999999,7.75599999999997 5.07599999999999,7.38299999999998 C4.922,7.00900000000001 5.00700000000001,6.57799999999997 5.29300000000001,6.29199999999997 C5.29300000000001,6.29199999999997 7.29300000000001,4.29199999999997 7.29300000000001,4.29199999999997 C7.488,4.09699999999998 7.744,3.99900000000002 8,3.99900000000002 C8.256,3.99900000000002 8.512,4.09699999999998 8.70699999999999,4.29199999999997 C8.70699999999999,4.29199999999997 10.707,6.29199999999997 10.707,6.29199999999997 C10.992,6.57799999999997 11.078,7.00799999999998 10.924,7.38299999999998 C10.77,7.75599999999997 10.404,8 10,8 Z "/></svg>